<svg width="6" height="11" viewBox="0 0 6 11" fill="none" xmlns="http://www.w3.org/2000/svg">
  <path d="M0.749899 4.75003H5.2499C5.29546 4.74988 5.34012 4.73732 5.37907 4.71368C5.41802 4.69005 5.44978 4.65623 5.47095 4.61589C5.49211 4.57554 5.50187 4.53019 5.49918 4.48471C5.49648 4.43922 5.48143 4.39534 5.45565 4.35778L3.20565 1.10778C3.1124 0.973026 2.8879 0.973026 2.7944 1.10778L0.544399 4.35778C0.518356 4.39526 0.503083 4.43917 0.500241 4.48472C0.497398 4.53028 0.507095 4.57575 0.528278 4.61618C0.54946 4.65661 0.581318 4.69046 0.62039 4.71406C0.659462 4.73766 0.704254 4.7501 0.749899 4.75003Z" fill="currentColor"/>
  <g clip-path="url(#clip0_12045_17898)">
    <path d="M5.2501 6.24997L0.750101 6.24997C0.704541 6.25012 0.659882 6.26268 0.620932 6.28632C0.581982 6.30995 0.550216 6.34376 0.529052 6.38411C0.507889 6.42446 0.49813 6.46981 0.500825 6.51529C0.503521 6.56077 0.518569 6.60466 0.544351 6.64222L2.79435 9.89222C2.8876 10.027 3.1121 10.027 3.2056 9.89222L5.4556 6.64222C5.48164 6.60474 5.49692 6.56083 5.49976 6.51528C5.5026 6.46972 5.49291 6.42425 5.47172 6.38382C5.45054 6.34339 5.41868 6.30954 5.37961 6.28594C5.34054 6.26234 5.29575 6.2499 5.2501 6.24997Z" fill="currentColor"/>
  </g>
</svg>
